<svg xmlns="http://www.w3.org/2000/svg" viewBox="0 0 313.56 125.52"><defs><style>.cls-1{fill:#ff0;}</style></defs><g id="Layer_2" data-name="Layer 2"><g id="Layer_1-2" data-name="Layer 1"><ellipse class="cls-1" cx="156.49" cy="100.52" rx="149.5" ry="25"/><path class="cls-1" d="M34.67,69.92V45.8H23.73V69.92H0V1.17H23.73V23.83H34.67V1.17H58.5V69.92Z"/><path class="cls-1" d="M63.38,35.55C63.38,13.87,76.07,0,96.78,0S130,13.87,130,35.55c0,22.26-12.6,35.64-33.2,35.64S63.38,57.81,63.38,35.55Zm43,0c0-9.67-3.23-13.67-9.57-13.67s-9.67,4-9.67,13.67,4,13.57,9.67,13.57S106.35,45.21,106.35,35.55Z"/><path class="cls-1" d="M174.12,69.92,156.73,43.16V69.92H135V1.17h22.85l14.55,22.76V1.17h22V69.92Z"/><path class="cls-1" d="M221.38,69.92c-13.09,0-22.27-6.74-22.27-21.19,0-6.35,2.44-12.79,8.5-15.53-4.88-2.63-7-8.4-7-14.35,0-10.26,6.25-17.68,19.33-17.68h31V23H225.48c-2,0-2.93,1-2.93,3s.88,2.93,2.93,2.93h22.46V40.72H226.07c-2.64,0-3.81,1.17-3.81,3.62,0,2.24,1.17,3.41,3.81,3.41H251V69.92Z"/><path class="cls-1" d="M257.22,69.92V48H283c4.88,0,6.44-2.05,6.44-5.27h-10c-14.26,0-22.36-7.52-22.36-22.27V1.17H281V19.92c0,5.76,2.06,7.42,6.35,7.42h2.44V1.17h23.73V43.36c0,15-8.88,26.56-23.24,26.56Z"/><path d="M85.74,89.65H99.56V95h-7.5v3.24h6.32v5.16H92.06v8H85.74Z"/><path d="M113.13,89.2a11.24,11.24,0,0,1,11.64,11.33c0,6.32-4.78,11.34-11.64,11.34a11.34,11.34,0,1,1,0-22.67Zm0,16.89a5.57,5.57,0,0,0,0-11.12,5.57,5.57,0,0,0,0,11.12Z"/><path d="M139.77,111.42l-3.21-6.78h-1.78v6.78h-6.17V89.65h8.19c5.35,0,9.13,2.51,9.13,7.65a6.55,6.55,0,0,1-3.84,6.32l4.24,7.8Zm-5-16.45v4.66h2.36a2.13,2.13,0,0,0,2.41-2.33A2.16,2.16,0,0,0,137.14,95Z"/><path d="M150,89.65h14.57V95h-8.26v2.9h7.08v5h-7.08v3.23H165v5.33H150Z"/><path d="M182.48,89.65h7l-11.37,22.07h-.3l-11.4-22.07h7l2.69,5.77a33.88,33.88,0,0,1,1.84,4.51H178a33.88,33.88,0,0,1,1.84-4.51Z"/><path d="M191.92,89.65h14.57V95h-8.25v2.9h7.07v5h-7.07v3.23h8.7v5.33h-15Z"/><path d="M221.94,111.42l-3.21-6.78H217v6.78h-6.17V89.65H219c5.35,0,9.12,2.51,9.12,7.65a6.56,6.56,0,0,1-3.83,6.32l4.23,7.8ZM217,95v4.66h2.36a2.14,2.14,0,0,0,2.42-2.33A2.17,2.17,0,0,0,219.31,95Z"/></g></g></svg>